<?xml version="1.0" standalone="no"?><!DOCTYPE svg PUBLIC "-//W3C//DTD SVG 1.1//EN" "http://www.w3.org/Graphics/SVG/1.1/DTD/svg11.dtd"><svg t="1611135086091" class="icon" viewBox="0 0 1024 1024" version="1.1" xmlns="http://www.w3.org/2000/svg" p-id="5308" xmlns:xlink="http://www.w3.org/1999/xlink" width="32" height="32"><defs><style type="text/css"></style></defs><path d="M640.24 469.376a129.296 129.296 0 0 0-126.4-88.912 133.84 133.84 0 0 0-118.912 72.72c-38.304 5.984-93.408 30.576-97.6 94.4a82.352 82.352 0 0 0 19.632 63.296c26.72 29.472 70.544 30.848 89.264 31.44l259.952 0.08a23.744 23.744 0 0 0 8.368-1.504 77.936 77.936 0 0 0 47.552-73.984c0.384-59.52-46.896-87.84-81.856-97.536z m20.16 125.008H407.664c-12.608-0.4-42.16-1.328-55.216-15.712a36.224 36.224 0 0 1-7.296-27.888c3.2-47.632 64-50.944 66.4-51.072a24.176 24.176 0 0 0 21.536-15.424 89.6 89.6 0 0 1 80.72-55.776 83.04 83.04 0 0 1 83.52 65.6 24.176 24.176 0 0 0 20.272 19.424c5.808 0.832 56.752 9.504 56.432 52.992a31.328 31.328 0 0 1-13.632 27.792z" fill="#1771B9" p-id="5309"></path><path d="M941.472 535.984a24 24 0 0 0 0-48H885.12v-92.416h56.352a24 24 0 0 0 0-48H885.12v-140.288a68.48 68.48 0 0 0-68.416-68.4H676.8V82.528a24 24 0 0 0-48 0V138.88h-92.432V82.528a24 24 0 0 0-48 0V138.88h-92.432V82.528a24 24 0 0 0-48 0V138.88h-140.656a68.48 68.48 0 0 0-68.4 68.4v140.288H82.576a24 24 0 0 0 0 48h56.352v92.416H82.576a24 24 0 0 0 0 48h56.352v92.448H82.576a24 24 0 1 0 0 48h56.352v140.272a68.48 68.48 0 0 0 68.4 68.416h140.656v56.352a24 24 0 0 0 48 0V885.12h92.432v56.352a24 24 0 0 0 48 0V885.12h92.432v56.352a24 24 0 0 0 48 0V885.12h139.904a68.496 68.496 0 0 0 68.416-68.416v-140.272h56.352a24 24 0 1 0 0-48h-56.352v-92.448zM837.12 816.704a20.448 20.448 0 0 1-20.416 20.416H207.28a20.432 20.432 0 0 1-20.4-20.416V207.28a20.416 20.416 0 0 1 20.4-20.4h609.424a20.432 20.432 0 0 1 20.416 20.4v609.424z" fill="#666666" p-id="5310"></path></svg>