<?xml version="1.0" standalone="no"?><!DOCTYPE svg PUBLIC "-//W3C//DTD SVG 1.1//EN" "http://www.w3.org/Graphics/SVG/1.1/DTD/svg11.dtd"><svg t="1611134952484" class="icon" viewBox="0 0 1024 1024" version="1.1" xmlns="http://www.w3.org/2000/svg" p-id="2823" xmlns:xlink="http://www.w3.org/1999/xlink" width="32" height="32"><defs><style type="text/css"></style></defs><path d="M512.014 751.792c-17.636 0-31.986-14.34-31.986-31.992s14.348-31.994 31.986-31.994c17.638 0 31.996 14.342 31.996 31.994s-14.358 31.992-31.996 31.992z m0-47.988c-8.818 0-15.988 7.186-15.988 15.996s7.17 15.996 15.988 15.996c8.82 0 16-7.186 16-15.996s-7.18-15.996-16-15.996zM360.156 959.782a8.012 8.012 0 0 1-7.82-9.73l31.994-143.97c0.96-4.312 5.288-6.966 9.544-6.078a8.012 8.012 0 0 1 6.076 9.544l-31.994 143.97a7.994 7.994 0 0 1-7.8 6.264zM663.89 959.782a8 8 0 0 1-7.81-6.264l-31.994-143.97a8.012 8.012 0 0 1 6.076-9.544c4.344-0.904 8.594 1.782 9.546 6.078l31.992 143.97a8.01 8.01 0 0 1-7.81 9.73z" fill="" p-id="2824"></path><path d="M687.978 959.782H336.06a7.992 7.992 0 0 1-7.998-7.998 7.994 7.994 0 0 1 7.998-7.998h351.918c4.422 0 8 3.578 8 7.998a7.994 7.994 0 0 1-8 7.998zM903.936 672.092H120.104c-4.422 0-8-3.578-8-7.998V311.916a7.994 7.994 0 0 1 8-7.998 7.994 7.994 0 0 1 7.998 7.998v344.178h767.834V311.916a7.994 7.994 0 0 1 8-7.998 7.994 7.994 0 0 1 7.998 7.998v352.178a7.994 7.994 0 0 1-7.998 7.998z" fill="" p-id="2825"></path><path d="M903.936 784.068H120.104c-30.87 0-55.988-25.12-55.988-55.988V311.916a7.994 7.994 0 0 1 7.998-7.998 7.994 7.994 0 0 1 7.998 7.998V728.08c0 22.056 17.942 39.992 39.992 39.992h783.832c22.056 0 39.99-17.936 39.99-39.992V311.916a7.994 7.994 0 0 1 7.998-7.998c4.422 0 8 3.578 8 7.998V728.08c0 30.87-25.122 55.988-55.988 55.988zM951.924 128.206a7.994 7.994 0 0 1-7.998-7.998c0-22.05-17.934-39.992-39.99-39.992H120.104c-22.05 0-39.992 17.942-39.992 39.992a7.994 7.994 0 0 1-7.998 7.998 7.994 7.994 0 0 1-7.998-7.998c0-30.87 25.12-55.988 55.988-55.988h783.832c30.868 0 55.988 25.12 55.988 55.988a7.996 7.996 0 0 1-8 7.998z" fill="" p-id="2826"></path><path d="M903.936 815.812H120.104c-31.392 0-55.988-24.59-55.988-55.988v-31.994a7.994 7.994 0 0 1 7.998-7.998 7.994 7.994 0 0 1 7.998 7.998v31.994c0 22.432 17.566 39.99 39.992 39.99h783.832c22.432 0 39.99-17.558 39.99-39.99V728.08a7.994 7.994 0 0 1 7.998-7.998c4.422 0 8 3.578 8 7.998v31.744c0 31.398-24.59 55.988-55.988 55.988zM360.054 607.98H184.09a7.994 7.994 0 0 1-7.998-8V344.036a7.994 7.994 0 0 1 7.998-7.998h175.962c4.422 0 8 3.576 8 7.998V599.98c0 4.422-3.576 8-7.998 8z m-167.966-15.996h159.966V352.034H192.088v239.95z" fill="" p-id="2827"></path><path d="M312.064 575.986h-79.982c-13.232 0-23.996-10.764-23.996-23.994 0-13.232 10.762-23.996 23.996-23.996h79.982c13.232 0 23.996 10.764 23.996 23.996 0 13.23-10.764 23.994-23.996 23.994z m-79.982-31.994a8.008 8.008 0 0 0-7.998 8 8.008 8.008 0 0 0 7.998 7.998h79.982c4.414 0 8-3.594 8-7.998 0-4.406-3.584-8-8-8h-79.982zM360.054 480.006H184.09a7.994 7.994 0 0 1-7.998-7.998 7.994 7.994 0 0 1 7.998-7.998h175.962c4.422 0 8 3.578 8 7.998a7.992 7.992 0 0 1-7.998 7.998z" fill="" p-id="2828"></path><path d="M360.062 480.006a7.96 7.96 0 0 1-6.404-3.202l-41.594-55.45-41.592 55.45a7.974 7.974 0 0 1-11.194 1.602 7.986 7.986 0 0 1-1.602-11.194l47.99-63.986c3.016-4.032 9.78-4.032 12.794 0l47.99 63.986a7.986 7.986 0 0 1-1.6 11.194 7.96 7.96 0 0 1-4.788 1.6z" fill="" p-id="2829"></path><path d="M216.076 480.006a7.982 7.982 0 0 1-4.992-1.748 8.014 8.014 0 0 1-1.25-11.248l31.994-39.992a8.01 8.01 0 0 1 6.248-3 8.02 8.02 0 0 1 6.25 3.008l23.746 29.698a7.994 7.994 0 0 1-1.258 11.24 8.006 8.006 0 0 1-11.24-1.258l-17.496-21.886-25.744 32.19a8.02 8.02 0 0 1-6.258 2.996zM232.082 416.02c-13.232 0-23.996-10.764-23.996-23.994 0-13.232 10.762-23.996 23.996-23.996 13.232 0 23.994 10.764 23.994 23.996 0 13.23-10.764 23.994-23.994 23.994z m0-31.992a8.002 8.002 0 0 0-7.998 7.998 8.004 8.004 0 0 0 7.998 7.998 8.004 8.004 0 0 0 7.998-7.998 8.004 8.004 0 0 0-7.998-7.998zM264.074 512h-47.99a7.994 7.994 0 0 1-7.998-7.998 7.994 7.994 0 0 1 7.998-7.998h47.99a7.994 7.994 0 0 1 7.998 7.998 7.994 7.994 0 0 1-7.998 7.998zM328.062 512h-23.996a7.994 7.994 0 0 1-7.998-7.998 7.994 7.994 0 0 1 7.998-7.998h23.996a7.994 7.994 0 0 1 7.998 7.998 7.994 7.994 0 0 1-7.998 7.998zM248.078 575.986a7.994 7.994 0 0 1-7.998-7.998v-31.994a7.994 7.994 0 0 1 7.998-7.998 7.994 7.994 0 0 1 7.998 7.998v31.994a7.992 7.992 0 0 1-7.998 7.998zM599.998 607.98H424.04c-4.42 0-8-3.578-8-8V344.036a7.994 7.994 0 0 1 8-7.998h175.958a7.994 7.994 0 0 1 7.998 7.998V599.98c0 4.422-3.578 8-7.998 8z m-167.958-15.996H592V352.034h-159.96v239.95z" fill="" p-id="2830"></path><path d="M552.008 575.986h-79.976c-13.232 0-23.996-10.764-23.996-23.994 0-13.232 10.764-23.996 23.996-23.996h79.976c13.232 0 23.994 10.764 23.994 23.996 0 13.23-10.762 23.994-23.994 23.994z m-79.976-31.994c-4.414 0-8 3.594-8 8a8.01 8.01 0 0 0 8 7.998h79.976a8.014 8.014 0 0 0 7.998-7.998c0-4.406-3.594-8-7.998-8h-79.976zM599.998 480.006H424.04c-4.42 0-8-3.576-8-7.998a7.994 7.994 0 0 1 8-7.998h175.958a7.994 7.994 0 0 1 7.998 7.998 7.994 7.994 0 0 1-7.998 7.998z" fill="" p-id="2831"></path><path d="M599.998 480.006a7.994 7.994 0 0 1-6.406-3.202l-41.584-55.45-41.586 55.45a7.972 7.972 0 0 1-11.192 1.602 7.986 7.986 0 0 1-1.6-11.194l47.976-63.986c3.03-4.032 9.778-4.032 12.808 0l47.99 63.986a8.008 8.008 0 0 1-6.406 12.794z" fill="" p-id="2832"></path><path d="M456.026 480.006a7.982 7.982 0 0 1-4.992-1.748 8.014 8.014 0 0 1-1.25-11.248l31.992-39.992a8.012 8.012 0 0 1 6.25-3 8.02 8.02 0 0 1 6.248 3.008l23.746 29.698a7.996 7.996 0 1 1-12.498 9.982l-17.496-21.886-25.746 32.19a8.006 8.006 0 0 1-6.254 2.996zM472.032 416.02c-13.232 0-23.996-10.764-23.996-23.994 0-13.232 10.764-23.996 23.996-23.996s23.996 10.764 23.996 23.996c-0.002 13.23-10.766 23.994-23.996 23.994z m0-31.992c-4.414 0-8 3.584-8 7.998 0 4.412 3.586 7.998 8 7.998s7.998-3.586 7.998-7.998a8.004 8.004 0 0 0-7.998-7.998zM504.024 512h-47.99a7.994 7.994 0 0 1-7.998-7.998 7.994 7.994 0 0 1 7.998-7.998h47.99a7.994 7.994 0 0 1 7.998 7.998 7.994 7.994 0 0 1-7.998 7.998zM568.004 512h-23.994c-4.422 0-8-3.578-8-7.998a7.994 7.994 0 0 1 8-7.998h23.994a7.992 7.992 0 0 1 7.998 7.998 7.994 7.994 0 0 1-7.998 7.998zM488.028 575.986c-4.422 0-8-3.576-8-7.998v-31.994a7.994 7.994 0 0 1 8-7.998 7.994 7.994 0 0 1 7.998 7.998v31.994a7.994 7.994 0 0 1-7.998 7.998z" fill="" p-id="2833"></path><path d="M840.134 607.98h-175.962a7.994 7.994 0 0 1-7.998-8V344.036a7.994 7.994 0 0 1 7.998-7.998h175.962c4.422 0 8 3.576 8 7.998V599.98c0 4.422-3.578 8-8 8z m-167.964-15.996h159.966V352.034h-159.966v239.95z" fill="" p-id="2834"></path><path d="M792.146 575.986h-79.984c-13.232 0-23.996-10.764-23.996-23.994 0-13.232 10.764-23.996 23.996-23.996h79.984c13.23 0 23.994 10.764 23.994 23.996 0 13.23-10.764 23.994-23.994 23.994z m-79.984-31.994a8.014 8.014 0 0 0-7.998 8 8.014 8.014 0 0 0 7.998 7.998h79.984a8.014 8.014 0 0 0 7.996-7.998c0-4.406-3.592-8-7.996-8h-79.984zM840.134 480.006h-175.962a7.994 7.994 0 0 1-7.998-7.998 7.994 7.994 0 0 1 7.998-7.998h175.962c4.422 0 8 3.578 8 7.998a7.994 7.994 0 0 1-8 7.998z" fill="" p-id="2835"></path><path d="M840.134 480.006a7.99 7.99 0 0 1-6.404-3.202l-41.584-55.45-41.586 55.45a7.986 7.986 0 0 1-11.202 1.602 8.01 8.01 0 0 1-1.61-11.194l47.99-63.986c3.032-4.032 9.78-4.032 12.81 0l47.99 63.986a8.01 8.01 0 0 1-6.404 12.794z" fill="" p-id="2836"></path><path d="M696.166 480.006a7.984 7.984 0 0 1-5-1.748 8.01 8.01 0 0 1-1.25-11.248l31.994-39.992a7.996 7.996 0 0 1 12.498 0.008l23.744 29.698a8 8 0 0 1-1.25 11.24 7.984 7.984 0 0 1-11.248-1.258l-17.496-21.886-25.744 32.19a8.002 8.002 0 0 1-6.248 2.996zM712.162 416.02c-13.232 0-23.996-10.764-23.996-23.994 0-13.232 10.764-23.996 23.996-23.996 13.23 0 23.994 10.764 23.994 23.996 0 13.23-10.764 23.994-23.994 23.994z m0-31.992a8.008 8.008 0 0 0-7.998 7.998c0 4.412 3.592 7.998 7.998 7.998s7.998-3.586 7.998-7.998a8.008 8.008 0 0 0-7.998-7.998zM744.154 512h-47.988c-4.422 0-8-3.578-8-7.998a7.994 7.994 0 0 1 8-7.998h47.988c4.422 0 8 3.576 8 7.998a7.994 7.994 0 0 1-8 7.998zM808.142 512h-23.996a7.994 7.994 0 0 1-7.998-7.998 7.994 7.994 0 0 1 7.998-7.998h23.996a7.994 7.994 0 0 1 7.998 7.998 7.994 7.994 0 0 1-7.998 7.998zM728.158 575.986a7.994 7.994 0 0 1-7.998-7.998v-31.994a7.994 7.994 0 0 1 7.998-7.998 7.994 7.994 0 0 1 7.998 7.998v31.994a7.992 7.992 0 0 1-7.998 7.998z" fill="" p-id="2837"></path><path d="M8.128 223.936a7.996 7.996 0 0 1-5.618-13.692l64.862-63.986a7.994 7.994 0 0 1 5.618-2.304H952.8c2.14 0 4.188 0.86 5.704 2.382l63.112 63.986a8.008 8.008 0 0 1-0.078 11.31c-3.138 3.102-8.186 3.07-11.326-0.078L949.46 159.948H76.27L13.744 221.63a7.954 7.954 0 0 1-5.616 2.306z" fill="" p-id="2838"></path><path d="M32.122 287.922a39.986 39.986 0 0 1-30.088-13.654 8 8 0 0 1 0.758-11.288c3.296-2.904 8.35-2.576 11.288 0.758a23.974 23.974 0 0 0 18.042 8.188c13.232 0 23.996-10.764 23.996-23.996a7.994 7.994 0 0 1 8-7.998 7.994 7.994 0 0 1 7.998 7.998c-0.002 22.05-17.944 39.992-39.994 39.992z" fill="" p-id="2839"></path><path d="M96.108 287.922c-22.048 0-39.992-17.942-39.992-39.992a7.994 7.994 0 0 1 8-7.998 7.994 7.994 0 0 1 7.998 7.998c0 13.232 10.764 23.996 23.994 23.996 13.232 0 23.996-10.764 23.996-23.996a7.994 7.994 0 0 1 7.998-7.998 7.994 7.994 0 0 1 7.998 7.998c0 22.05-17.94 39.992-39.992 39.992z" fill="" p-id="2840"></path><path d="M160.096 287.922c-22.05 0-39.992-17.942-39.992-39.992a7.994 7.994 0 0 1 7.998-7.998 7.994 7.994 0 0 1 7.998 7.998c0 13.232 10.764 23.996 23.996 23.996s23.996-10.764 23.996-23.996a7.994 7.994 0 0 1 7.998-7.998 7.994 7.994 0 0 1 7.998 7.998c-0.002 22.05-17.942 39.992-39.992 39.992z" fill="" p-id="2841"></path><path d="M224.084 287.922c-22.05 0-39.992-17.942-39.992-39.992a7.994 7.994 0 0 1 7.998-7.998 7.994 7.994 0 0 1 7.998 7.998c0 13.232 10.764 23.996 23.996 23.996 13.23 0 23.994-10.764 23.994-23.996a7.994 7.994 0 0 1 7.998-7.998c4.422 0 8 3.578 8 7.998-0.002 22.05-17.944 39.992-39.992 39.992z" fill="" p-id="2842"></path><path d="M288.07 287.922c-22.05 0-39.992-17.942-39.992-39.992a7.994 7.994 0 0 1 7.998-7.998c4.422 0 8 3.578 8 7.998 0 13.232 10.762 23.996 23.996 23.996 13.232 0 23.994-10.764 23.994-23.996 0-4.42 3.578-7.998 8-7.998s8 3.578 8 7.998c-0.004 22.05-17.946 39.992-39.996 39.992z" fill="" p-id="2843"></path><path d="M352.056 287.922c-22.05 0-39.992-17.942-39.992-39.992 0-4.42 3.578-7.998 8-7.998s8 3.578 8 7.998c0 13.232 10.762 23.996 23.994 23.996s23.996-10.764 23.996-23.996a7.994 7.994 0 0 1 8-7.998 7.994 7.994 0 0 1 7.998 7.998c-0.004 22.05-17.946 39.992-39.996 39.992z" fill="" p-id="2844"></path><path d="M416.042 287.922c-22.048 0-39.992-17.942-39.992-39.992a7.994 7.994 0 0 1 8-7.998 7.994 7.994 0 0 1 7.998 7.998c0 13.232 10.764 23.996 23.994 23.996 13.232 0 23.996-10.764 23.996-23.996 0-4.42 3.578-7.998 7.998-7.998s7.998 3.578 7.998 7.998c0 22.05-17.942 39.992-39.992 39.992z" fill="" p-id="2845"></path><path d="M480.03 287.922c-22.05 0-39.992-17.942-39.992-39.992 0-4.42 3.578-7.998 7.998-7.998s7.998 3.578 7.998 7.998c0 13.232 10.764 23.996 23.996 23.996 13.224 0 23.988-10.764 23.988-23.996a7.994 7.994 0 0 1 7.998-7.998c4.422 0 8 3.578 8 7.998-0.002 22.05-17.936 39.992-39.986 39.992z" fill="" p-id="2846"></path><path d="M544.01 287.922c-22.05 0-39.994-17.942-39.994-39.992a7.994 7.994 0 0 1 7.998-7.998c4.422 0 8 3.578 8 7.998 0 13.232 10.764 23.996 23.996 23.996 13.23 0 23.994-10.764 23.994-23.996a7.994 7.994 0 0 1 7.998-7.998c4.422 0 8 3.578 8 7.998 0 22.05-17.934 39.992-39.992 39.992z" fill="" p-id="2847"></path><path d="M607.996 287.922c-22.058 0-39.992-17.942-39.992-39.992a7.994 7.994 0 0 1 7.998-7.998c4.422 0 8 3.578 8 7.998 0 13.232 10.762 23.996 23.994 23.996s23.994-10.764 23.994-23.996a7.994 7.994 0 0 1 8-7.998 7.994 7.994 0 0 1 7.998 7.998c0 22.05-17.936 39.992-39.992 39.992z" fill="" p-id="2848"></path><path d="M671.982 287.922c-22.058 0-39.992-17.942-39.992-39.992a7.994 7.994 0 0 1 8-7.998 7.994 7.994 0 0 1 7.998 7.998c0 13.232 10.764 23.996 23.994 23.996 13.232 0 23.996-10.764 23.996-23.996a7.994 7.994 0 0 1 7.998-7.998 7.994 7.994 0 0 1 7.998 7.998c0 22.05-17.932 39.992-39.992 39.992z" fill="" p-id="2849"></path><path d="M735.97 287.922c-22.058 0-39.992-17.942-39.992-39.992a7.994 7.994 0 0 1 7.998-7.998 7.994 7.994 0 0 1 7.998 7.998c0 13.232 10.764 23.996 23.996 23.996 13.23 0 23.994-10.764 23.994-23.996 0-4.42 3.576-7.998 7.998-7.998s7.998 3.578 7.998 7.998c0 22.05-17.932 39.992-39.99 39.992z" fill="" p-id="2850"></path><path d="M799.956 287.922c-22.056 0-39.99-17.942-39.99-39.992 0-4.42 3.576-7.998 7.998-7.998s7.998 3.578 7.998 7.998c0 13.232 10.764 23.996 23.994 23.996 13.232 0 23.996-10.764 23.996-23.996a7.994 7.994 0 0 1 7.998-7.998 7.994 7.994 0 0 1 7.998 7.998c0 22.05-17.934 39.992-39.992 39.992z" fill="" p-id="2851"></path><path d="M863.944 287.922c-22.058 0-39.992-17.942-39.992-39.992a7.994 7.994 0 0 1 7.998-7.998 7.994 7.994 0 0 1 7.998 7.998c0 13.232 10.764 23.996 23.996 23.996 13.23 0 23.994-10.764 23.994-23.996a7.994 7.994 0 0 1 7.998-7.998c4.422 0 8 3.578 8 7.998 0 22.05-17.934 39.992-39.992 39.992z" fill="" p-id="2852"></path><path d="M927.93 287.922c-22.058 0-39.992-17.942-39.992-39.992a7.994 7.994 0 0 1 7.998-7.998c4.422 0 8 3.578 8 7.998 0 13.232 10.762 23.996 23.994 23.996s23.994-10.764 23.994-23.996a7.994 7.994 0 0 1 8-7.998 7.994 7.994 0 0 1 7.998 7.998c0 22.05-17.934 39.992-39.992 39.992z" fill="" p-id="2853"></path><path d="M991.916 287.922c-22.058 0-39.992-17.942-39.992-39.992a7.994 7.994 0 0 1 8-7.998 7.994 7.994 0 0 1 7.998 7.998c0 13.232 10.764 23.996 23.994 23.996a24.04 24.04 0 0 0 18.028-8.156c2.906-3.318 7.968-3.63 11.294-0.704a8.008 8.008 0 0 1 0.704 11.294 40.1 40.1 0 0 1-30.026 13.562z" fill="" p-id="2854"></path><path d="M8.128 277.002c-4.422 0-8-3.578-8-7.998v-53.068a7.994 7.994 0 0 1 8-7.998 7.994 7.994 0 0 1 7.998 7.998v53.068a7.994 7.994 0 0 1-7.998 7.998z" fill="" p-id="2855"></path><path d="M984.792 223.936H40.996a7.994 7.994 0 0 1-7.998-8 7.994 7.994 0 0 1 7.998-7.998h943.798a7.994 7.994 0 0 1 7.998 7.998c0 4.422-3.58 8-8 8z" fill="" p-id="2856"></path><path d="M1015.912 277.064c-4.422 0-8-3.578-8-7.998v-53.13a7.994 7.994 0 0 1 8-7.998 7.994 7.994 0 0 1 7.998 7.998v53.13a7.994 7.994 0 0 1-7.998 7.998z" fill="" p-id="2857"></path><path d="M140.124 207.938a7.936 7.936 0 0 1-4.796-1.61 7.988 7.988 0 0 1-1.586-11.192L157.8 163.142a7.974 7.974 0 0 1 11.192-1.586 7.99 7.99 0 0 1 1.586 11.194L146.52 204.744a7.976 7.976 0 0 1-6.396 3.194z" fill="" p-id="2858"></path><path d="M202.102 207.938a7.89 7.89 0 0 1-4.242-1.226 7.986 7.986 0 0 1-2.522-11.02l20.066-31.994a7.982 7.982 0 0 1 11.02-2.524 7.988 7.988 0 0 1 2.522 11.022l-20.066 31.994a7.974 7.974 0 0 1-6.778 3.748z" fill="" p-id="2859"></path><path d="M264.066 208a7.95 7.95 0 0 1-3.578-0.852 7.986 7.986 0 0 1-3.562-10.73l15.998-31.87a7.988 7.988 0 0 1 10.732-3.562 7.99 7.99 0 0 1 3.562 10.732l-15.996 31.87a8.008 8.008 0 0 1-7.156 4.412z" fill="" p-id="2860"></path><path d="M326.054 207.938c-0.938 0-1.882-0.164-2.812-0.508a8.008 8.008 0 0 1-4.678-10.302l12.004-31.992c1.554-4.148 6.164-6.204 10.302-4.68a8.01 8.01 0 0 1 4.68 10.302l-12.006 31.994a8 8 0 0 1-7.49 5.186z" fill="" p-id="2861"></path><path d="M388.056 207.938c-0.64 0-1.296-0.078-1.944-0.242a7.986 7.986 0 0 1-5.82-9.694l7.998-31.992a7.964 7.964 0 0 1 9.694-5.82 7.986 7.986 0 0 1 5.82 9.694l-8 31.994a7.984 7.984 0 0 1-7.748 6.06z" fill="" p-id="2862"></path><path d="M450.036 207.938a8 8 0 0 1-7.944-8.99l4-31.992a7.998 7.998 0 0 1 15.872 1.982l-4 31.994a8.004 8.004 0 0 1-7.928 7.006z" fill="" p-id="2863"></path><path d="M512.014 207.938a7.994 7.994 0 0 1-7.998-7.998V167.948c0-4.422 3.578-8 7.998-8 4.422 0 8 3.578 8 8V199.94a7.992 7.992 0 0 1-8 7.998z" fill="" p-id="2864"></path><path d="M78.144 207.938a8 8 0 0 1-6.014-13.27l28.056-31.994a8.016 8.016 0 0 1 11.288-0.742 8.002 8.002 0 0 1 0.742 11.288L84.16 205.214a7.996 7.996 0 0 1-6.016 2.724z" fill="" p-id="2865"></path><path d="M883.94 207.954a8 8 0 0 1-6.39-3.186L853.46 172.758a7.998 7.998 0 1 1 12.78-9.624l24.088 32.01a7.996 7.996 0 0 1-6.388 12.81z" fill="" p-id="2866"></path><path d="M821.952 207.954a8.012 8.012 0 0 1-6.78-3.748l-20.09-32.01a7.99 7.99 0 0 1 2.532-11.022c3.716-2.318 8.67-1.226 11.03 2.524l20.09 32.01a7.99 7.99 0 0 1-2.532 11.02 7.994 7.994 0 0 1-4.25 1.226z" fill="" p-id="2867"></path><path d="M759.964 207.954a7.964 7.964 0 0 1-7.138-4.404l-16.092-32.01a7.994 7.994 0 0 1 3.546-10.74 7.98 7.98 0 0 1 10.732 3.554l16.09 32.01a7.99 7.99 0 0 1-7.138 11.59z" fill="" p-id="2868"></path><path d="M697.978 207.954a7.984 7.984 0 0 1-7.484-5.194l-11.996-32.01a7.994 7.994 0 0 1 4.67-10.294c4.108-1.516 8.748 0.532 10.294 4.688l11.996 32.008a7.99 7.99 0 0 1-7.48 10.802z" fill="" p-id="2869"></path><path d="M635.99 207.954a7.996 7.996 0 0 1-7.764-6.06l-7.998-32.01a8.01 8.01 0 0 1 5.826-9.694c4.294-1.118 8.624 1.532 9.702 5.82l7.998 32.008a8.01 8.01 0 0 1-7.764 9.936z" fill="" p-id="2870"></path><path d="M573.986 207.954a7.99 7.99 0 0 1-7.918-7.006l-4-32.01a8 8 0 0 1 6.952-8.928c4.078-0.554 8.374 2.546 8.92 6.946l4 32.008a8 8 0 0 1-7.954 8.99z" fill="" p-id="2871"></path><path d="M945.926 207.954a7.98 7.98 0 0 1-6.014-2.724L911.824 173.22a8.014 8.014 0 0 1 0.734-11.288 8.02 8.02 0 0 1 11.294 0.742l28.086 32.01a8.014 8.014 0 0 1-0.734 11.288 8.006 8.006 0 0 1-5.278 1.982z" fill="" p-id="2872"></path></svg>